<svg width="25" height="25" viewBox="0 0 25 25" fill="none" xmlns="http://www.w3.org/2000/svg">
<path d="M3 4.75C3 4.55109 3.07902 4.36032 3.21967 4.21967C3.36032 4.07902 3.55109 4 3.75 4H4.308C5.258 4 5.828 4.639 6.153 5.233C6.37 5.629 6.527 6.088 6.65 6.504C6.68327 6.50137 6.71663 6.50004 6.75 6.5H19.248C20.078 6.5 20.678 7.294 20.45 8.093L18.622 14.502C18.4581 15.0769 18.1114 15.5827 17.6343 15.9428C17.1572 16.303 16.5758 16.4979 15.978 16.498H10.03C9.42749 16.498 8.84165 16.3002 8.36252 15.9349C7.8834 15.5696 7.5375 15.057 7.378 14.476L6.618 11.704L5.358 7.456L5.357 7.448C5.201 6.881 5.055 6.35 4.837 5.954C4.628 5.569 4.46 5.5 4.309 5.5H3.75C3.55109 5.5 3.36032 5.42098 3.21967 5.28033C3.07902 5.13968 3 4.94891 3 4.75ZM8.073 11.34L8.824 14.079C8.974 14.621 9.467 14.998 10.03 14.998H15.978C16.2497 14.998 16.514 14.9095 16.7309 14.7458C16.9478 14.5821 17.1054 14.3523 17.18 14.091L18.917 8H7.085L8.059 11.287L8.073 11.34ZM11.5 19.5C11.5 20.0304 11.2893 20.5391 10.9142 20.9142C10.5391 21.2893 10.0304 21.5 9.5 21.5C8.96957 21.5 8.46086 21.2893 8.08579 20.9142C7.71071 20.5391 7.5 20.0304 7.5 19.5C7.5 18.9696 7.71071 18.4609 8.08579 18.0858C8.46086 17.7107 8.96957 17.5 9.5 17.5C10.0304 17.5 10.5391 17.7107 10.9142 18.0858C11.2893 18.4609 11.5 18.9696 11.5 19.5ZM10 19.5C10 19.3674 9.94732 19.2402 9.85355 19.1464C9.75979 19.0527 9.63261 19 9.5 19C9.36739 19 9.24021 19.0527 9.14645 19.1464C9.05268 19.2402 9 19.3674 9 19.5C9 19.6326 9.05268 19.7598 9.14645 19.8536C9.24021 19.9473 9.36739 20 9.5 20C9.63261 20 9.75979 19.9473 9.85355 19.8536C9.94732 19.7598 10 19.6326 10 19.5ZM18.5 19.5C18.5 20.0304 18.2893 20.5391 17.9142 20.9142C17.5391 21.2893 17.0304 21.5 16.5 21.5C15.9696 21.5 15.4609 21.2893 15.0858 20.9142C14.7107 20.5391 14.5 20.0304 14.5 19.5C14.5 18.9696 14.7107 18.4609 15.0858 18.0858C15.4609 17.7107 15.9696 17.5 16.5 17.5C17.0304 17.5 17.5391 17.7107 17.9142 18.0858C18.2893 18.4609 18.5 18.9696 18.5 19.5ZM17 19.5C17 19.3674 16.9473 19.2402 16.8536 19.1464C16.7598 19.0527 16.6326 19 16.5 19C16.3674 19 16.2402 19.0527 16.1464 19.1464C16.0527 19.2402 16 19.3674 16 19.5C16 19.6326 16.0527 19.7598 16.1464 19.8536C16.2402 19.9473 16.3674 20 16.5 20C16.6326 20 16.7598 19.9473 16.8536 19.8536C16.9473 19.7598 17 19.6326 17 19.5Z" fill="#446969"/>
</svg>
