<svg width="38" height="39" viewBox="0 0 38 39" fill="none" xmlns="http://www.w3.org/2000/svg">
<path d="M8 9.23333C8 9.03884 8.07726 8.85232 8.2148 8.71479C8.35233 8.57726 8.53886 8.5 8.73336 8.5H10.9334C11.097 8.50005 11.2559 8.55478 11.3848 8.6555C11.5137 8.75622 11.6052 8.89715 11.6448 9.05587L12.2388 11.4333H29.2673C29.375 11.4334 29.4813 11.4572 29.5788 11.5031C29.6762 11.5489 29.7624 11.6156 29.8311 11.6985C29.8999 11.7814 29.9495 11.8784 29.9765 11.9826C30.0036 12.0869 30.0073 12.1958 29.9875 12.3016L27.7874 24.0349C27.756 24.203 27.6668 24.3548 27.5353 24.464C27.4038 24.5733 27.2382 24.6332 27.0673 24.6333H13.8668C13.6959 24.6332 13.5303 24.5733 13.3988 24.464C13.2673 24.3548 13.1782 24.203 13.1467 24.0349L10.9481 12.3236L10.3614 9.96667H8.73336C8.53886 9.96667 8.35233 9.88941 8.2148 9.75188C8.07726 9.61435 8 9.42783 8 9.23333ZM12.5497 12.9L14.4755 23.1667H26.4586L28.3844 12.9H12.5497ZM15.3336 24.6333C14.5556 24.6333 13.8094 24.9424 13.2593 25.4925C12.7092 26.0426 12.4001 26.7887 12.4001 27.5667C12.4001 28.3446 12.7092 29.0907 13.2593 29.6408C13.8094 30.191 14.5556 30.5 15.3336 30.5C16.1116 30.5 16.8577 30.191 17.4078 29.6408C17.9579 29.0907 18.267 28.3446 18.267 27.5667C18.267 26.7887 17.9579 26.0426 17.4078 25.4925C16.8577 24.9424 16.1116 24.6333 15.3336 24.6333ZM25.6005 24.6333C24.8226 24.6333 24.0764 24.9424 23.5263 25.4925C22.9762 26.0426 22.6671 26.7887 22.6671 27.5667C22.6671 28.3446 22.9762 29.0907 23.5263 29.6408C24.0764 30.191 24.8226 30.5 25.6005 30.5C26.3785 30.5 27.1247 30.191 27.6748 29.6408C28.2249 29.0907 28.534 28.3446 28.534 27.5667C28.534 26.7887 28.2249 26.0426 27.6748 25.4925C27.1247 24.9424 26.3785 24.6333 25.6005 24.6333ZM15.3336 26.1C15.7226 26.1 16.0956 26.2545 16.3707 26.5296C16.6457 26.8046 16.8003 27.1777 16.8003 27.5667C16.8003 27.9557 16.6457 28.3287 16.3707 28.6038C16.0956 28.8788 15.7226 29.0333 15.3336 29.0333C14.9446 29.0333 14.5715 28.8788 14.2964 28.6038C14.0214 28.3287 13.8668 27.9557 13.8668 27.5667C13.8668 27.1777 14.0214 26.8046 14.2964 26.5296C14.5715 26.2545 14.9446 26.1 15.3336 26.1ZM25.6005 26.1C25.9895 26.1 26.3626 26.2545 26.6377 26.5296C26.9127 26.8046 27.0673 27.1777 27.0673 27.5667C27.0673 27.9557 26.9127 28.3287 26.6377 28.6038C26.3626 28.8788 25.9895 29.0333 25.6005 29.0333C25.2115 29.0333 24.8385 28.8788 24.5634 28.6038C24.2884 28.3287 24.1338 27.9557 24.1338 27.5667C24.1338 27.1777 24.2884 26.8046 24.5634 26.5296C24.8385 26.2545 25.2115 26.1 25.6005 26.1Z" fill="#1E1E1E"/>
</svg>
