<svg width="36" height="37" viewBox="0 0 36 37" fill="none" xmlns="http://www.w3.org/2000/svg">
<path d="M18 18.5C19.3261 18.5 20.5979 17.9732 21.5355 17.0355C22.4732 16.0979 23 14.8261 23 13.5C23 12.1739 22.4732 10.9021 21.5355 9.96447C20.5979 9.02678 19.3261 8.5 18 8.5C16.6739 8.5 15.4021 9.02678 14.4645 9.96447C13.5268 10.9021 13 12.1739 13 13.5C13 14.8261 13.5268 16.0979 14.4645 17.0355C15.4021 17.9732 16.6739 18.5 18 18.5ZM21.3333 13.5C21.3333 14.3841 20.9821 15.2319 20.357 15.857C19.7319 16.4821 18.8841 16.8333 18 16.8333C17.1159 16.8333 16.2681 16.4821 15.643 15.857C15.0179 15.2319 14.6667 14.3841 14.6667 13.5C14.6667 12.6159 15.0179 11.7681 15.643 11.143C16.2681 10.5179 17.1159 10.1667 18 10.1667C18.8841 10.1667 19.7319 10.5179 20.357 11.143C20.9821 11.7681 21.3333 12.6159 21.3333 13.5ZM28 26.8333C28 28.5 26.3333 28.5 26.3333 28.5H9.66667C9.66667 28.5 8 28.5 8 26.8333C8 25.1667 9.66667 20.1667 18 20.1667C26.3333 20.1667 28 25.1667 28 26.8333ZM26.3333 26.8267C26.3317 26.4167 26.0767 25.1833 24.9467 24.0533C23.86 22.9667 21.815 21.8333 18 21.8333C14.1833 21.8333 12.14 22.9667 11.0533 24.0533C9.92333 25.1833 9.67 26.4167 9.66667 26.8267H26.3333Z" fill="#1E1E1E"/>
</svg>
