<svg width="40" height="22" viewBox="0 0 40 22" fill="none" xmlns="http://www.w3.org/2000/svg">
<path d="M13.16 11.944H20.12C19.088 12.184 18.392 13.12 18.392 14.152V20.8L17.264 20.536C16.664 20.392 16.064 20.344 15.488 20.344C14.696 20.344 13.928 20.44 13.16 20.68C12.272 20.944 11.288 21.088 10.304 21.088C4.664 21.088 0.08 16.408 0.08 10.648C0.08 10.264 0.104 9.856 0.152 9.472C0.704 4.12 5.12 0.183999 10.328 0.183999C10.496 0.183999 10.664 0.207999 10.832 0.207999C13.76 0.352 15.8 1.648 16.952 2.68C18.32 3.928 18.392 5.656 18.392 5.656C18.392 9.04 15.56 9.256 15.56 9.256C15.92 8.56 16.04 7.816 16.04 7.12C16.04 6.856 16.016 6.592 15.992 6.328C15.8 4.864 15.152 3.496 14.168 2.416C13.232 1.384 11.96 0.639999 10.304 0.639999C6.584 0.639999 3.584 5.128 3.584 10.648C3.584 19.72 10.232 20.392 10.28 20.392C10.52 20.416 10.76 20.44 11 20.44C12.464 20.44 13.808 19.936 14.888 19.504V14.152C14.888 13.624 14.696 13.144 14.408 12.76C14.096 12.352 13.664 12.064 13.16 11.944ZM34.0484 0.375999H39.2804C38.2724 0.639999 37.5524 1.552 37.5524 2.584V18.592C37.5524 19.12 37.7444 19.6 38.0324 19.984C38.3444 20.392 38.7764 20.68 39.2804 20.8H32.3204C33.3524 20.56 34.0484 19.648 34.0484 18.592V1.816L27.7844 20.8L22.0004 3.352V18.88C22.0004 19.336 22.1444 19.744 22.3844 20.08C22.6484 20.416 22.9844 20.68 23.4164 20.8H20.1284C20.9924 20.536 21.5684 19.768 21.5684 18.88V2.296C21.5684 2.152 21.5444 2.008 21.5204 1.864L21.3764 1.48C21.3284 1.336 21.2564 1.216 21.1604 1.096C20.9204 0.759999 20.5604 0.495999 20.1284 0.375999H24.7124L29.4884 14.512L34.0484 0.375999Z" fill="white"/>
</svg>